# xmcd CD database file
#
# Track frame offsets:
#	150
#	50263
#	84796
#	140164
#	175353
#	216668
#	239025
#	278119
#	314473
#
# Disc length: 4649 seconds
#
# Revision: 0
# Processed by: cddbd v1.5.2PL0 Copyright (c) Steve Scherf et al.
# Submitted via: CDex 1.70beta2
#
DISCID=8a122709
DTITLE=Buch und Sprecher: Günter Grass - Grimms Wörter CD04
DYEAR=2010
DGENRE=Hörbuch
TTITLE0=026 Kapitel 3: Die Cäsur - Da man sich civilisiert gab
TTITLE1=027 Kapitel 3: Die Cäsur - Nun ergab sich aber
TTITLE2=028 Kapitel 3: Die Cäsur - Es dauerte Jahre
TTITLE3=029 Kapitel 3: Die Cäsur - Viele Jahre später
TTITLE4=030 Kapitel 3: Die Cäsur - Ob Wilhelm Grimm
TTITLE5=031 Kapitel 3: Die Cäsur - Nun fallen Wilhelm
TTITLE6=032 Kapitel 4: Däumeling und Daumendick
TTITLE7=033 Kapitel 4: Däumeling und Daumendick - Vorerst stieß ich auf Widerstand
TTITLE8=034 Kapitel 4: Däumeling und Daumendick - Es blieb bei dem einen Kurs
EXTD=YEAR: 2010
EXTT0=
EXTT1=
EXTT2=
EXTT3=
EXTT4=
EXTT5=
EXTT6=
EXTT7=
EXTT8=
PLAYORDER=
